<?xml version="1.0" encoding="UTF-8"?>
<svg id="Capa_2" data-name="Capa 2" xmlns="http://www.w3.org/2000/svg" viewBox="0 0 138.73 138.48">
  <defs>
    <style>
      .cls-1 {
        fill: #313991;
        stroke-width: 0px;
      }
    </style>
  </defs>
  <g id="Capa_1-2" data-name="Capa 1">
    <g id="Grupo_9" data-name="Grupo 9">
      <g id="Grupo_1" data-name="Grupo 1">
        <circle id="Elipse_4" data-name="Elipse 4" class="cls-1" cx="108.64" cy="99.31" r="9.13"/>
        <path id="Sustracción_1" data-name="Sustracción 1" class="cls-1" d="M101.98,128.11c-3.15-2.31-5.79-5.16-7.84-8.48-1.97-3.16-3.26-6.71-3.87-10.4-.65-3.65-.54-7.37.26-10.98,1.71-7.52,6.45-14.03,13.05-17.93,3.16-1.89,6.71-3.1,10.36-3.67,3.69-.53,7.45-.38,11.07.5,3.78.88,7.35,2.57,10.46,4.84.83.62,1.7,1.27,2.45,1.97-13.67-7.84-31.1-3.11-38.93,10.56-6.65,11.65-4.33,26.3,5.59,35.31-.83-.54-1.69-1.11-2.6-1.72Z"/>
      </g>
      <g id="Grupo_3" data-name="Grupo 3">
        <circle id="Elipse_4-2" data-name="Elipse 4-2" class="cls-1" cx="119.59" cy="62.69" r="9.13"/>
        <path id="Sustracción_1-2" data-name="Sustracción 1-2" class="cls-1" d="M135.68,87.49c-3.85.66-7.74.58-11.55-.25-3.64-.78-7.09-2.31-10.17-4.44-3.08-2.07-5.67-4.73-7.72-7.82-4.22-6.46-5.61-14.38-3.83-21.84.84-3.58,2.43-6.98,4.56-10,2.18-3.03,4.9-5.63,8.05-7.62,3.26-2.11,6.96-3.51,10.75-4.16,1.02-.17,2.1-.34,3.12-.39-15.13,4.39-23.84,20.21-19.45,35.34,3.76,12.88,15.91,21.38,29.29,20.51-.96.22-1.98.45-3.05.67Z"/>
      </g>
      <g id="Grupo_2" data-name="Grupo 2">
        <circle id="Elipse_4-3" data-name="Elipse 4-3" class="cls-1" cx="100.96" cy="29.38" r="9.13"/>
        <path id="Sustracción_1-3" data-name="Sustracción 1-3" class="cls-1" d="M129.76,36.04c-2.31,3.15-5.16,5.79-8.48,7.84-3.16,1.97-6.71,3.26-10.4,3.87-3.65.65-7.37.54-10.98-.26-7.52-1.71-14.03-6.45-17.93-13.05-1.89-3.16-3.1-6.71-3.67-10.36-.53-3.69-.38-7.45.5-11.07.88-3.78,2.57-7.35,4.84-10.46.62-.83,1.27-1.7,1.97-2.45-7.84,13.67-3.11,31.1,10.56,38.93,11.65,6.65,26.3,4.33,35.31-5.59-.54.83-1.11,1.69-1.72,2.6Z"/>
      </g>
      <g id="Grupo_4" data-name="Grupo 4">
        <circle id="Elipse_4-4" data-name="Elipse 4-4" class="cls-1" cx="64.91" cy="19.14" r="9.13"/>
        <path id="Sustracción_1-4" data-name="Sustracción 1-4" class="cls-1" d="M89.72,3.05c.66,3.85.57,7.74-.26,11.55-.78,3.64-2.32,7.09-4.44,10.17-2.07,3.08-4.73,5.67-7.82,7.72-6.46,4.22-14.39,5.61-21.85,3.82-3.59-.84-6.98-2.44-10.01-4.56-3.03-2.18-5.63-4.91-7.62-8.06-2.11-3.26-3.5-6.96-4.16-10.75-.17-1.02-.34-2.1-.39-3.12,4.39,15.14,20.21,23.86,35.35,19.47,12.89-3.76,21.39-15.91,20.53-29.29.22.96.45,1.98.67,3.05Z"/>
      </g>
      <g id="Grupo_5" data-name="Grupo 5">
        <circle id="Elipse_4-5" data-name="Elipse 4-5" class="cls-1" cx="30.27" cy="38.04" r="9.12"/>
        <path id="Sustracción_1-5" data-name="Sustracción 1-5" class="cls-1" d="M38.92,9.78c2.98,2.52,5.41,5.55,7.23,9,1.74,3.29,2.79,6.91,3.14,10.64.4,3.68.03,7.38-1.02,10.94-2.23,7.39-7.41,13.54-14.26,16.97-3.28,1.66-6.91,2.62-10.59,2.94-3.72.27-7.46-.14-11.01-1.27-3.71-1.14-7.15-3.07-10.09-5.55-.78-.67-1.61-1.39-2.31-2.14,13.09,8.76,30.8,5.26,39.56-7.83,7.45-11.16,6.14-25.93-3.12-35.61.79.59,1.61,1.23,2.48,1.9Z"/>
      </g>
      <g id="Grupo_6" data-name="Grupo 6">
        <circle id="Elipse_4-6" data-name="Elipse 4-6" class="cls-1" cx="21.03" cy="75.62" r="9.13"/>
        <path id="Sustracción_1-6" data-name="Sustracción 1-6" class="cls-1" d="M6.26,50.01c3.88-.46,7.76-.17,11.52.86,3.59.97,6.96,2.68,9.92,4.96,2.97,2.22,5.42,5.02,7.3,8.21,3.88,6.67,4.85,14.66,2.68,22.01-1.03,3.54-2.79,6.84-5.08,9.75-2.34,2.91-5.19,5.36-8.44,7.19-3.36,1.94-7.13,3.14-10.95,3.59-1.03.11-2.11.23-3.14.23,15.34-3.59,24.87-18.93,21.27-34.28-3.08-13.06-14.77-22.19-28.17-22.01.97-.17,2-.34,3.08-.51Z"/>
      </g>
      <g id="Grupo_7" data-name="Grupo 7">
        <circle id="Elipse_4-7" data-name="Elipse 4-7" class="cls-1" cx="40.15" cy="108.43" r="9.13"/>
        <path id="Sustracción_1-7" data-name="Sustracción 1-7" class="cls-1" d="M11.74,100.27c2.47-3.02,5.46-5.51,8.88-7.39,3.26-1.8,6.87-2.91,10.59-3.32,3.68-.46,7.38-.15,10.96.84,7.42,2.11,13.67,7.18,17.22,13.97,1.72,3.26,2.74,6.86,3.12,10.54.34,3.72,0,7.46-1.08,11.03-1.07,3.73-2.95,7.21-5.38,10.19-.66.8-1.36,1.63-2.1,2.34,8.54-13.24,4.73-30.89-8.51-39.43-11.29-7.26-26.04-5.7-35.56,3.74.58-.8,1.2-1.63,1.86-2.51Z"/>
      </g>
      <g id="Grupo_8" data-name="Grupo 8">
        <circle id="Elipse_4-8" data-name="Elipse 4-8" class="cls-1" cx="75.7" cy="118.53" r="9.13"/>
        <path id="Sustracción_1-8" data-name="Sustracción 1-8" class="cls-1" d="M51.19,135.05c-.73-3.84-.71-7.73.05-11.55.72-3.65,2.19-7.13,4.26-10.25,2.01-3.11,4.63-5.75,7.68-7.86,6.39-4.33,14.28-5.86,21.77-4.21,3.6.78,7.02,2.31,10.08,4.38,3.06,2.13,5.71,4.8,7.76,7.92,2.17,3.22,3.63,6.89,4.35,10.67.19,1.02.37,2.09.45,3.11-4.65-15.05-20.62-23.48-35.68-18.83-12.81,3.98-21.1,16.28-20,29.64-.24-.96-.48-1.97-.73-3.04Z"/>
      </g>
    </g>
  </g>
</svg>