<?xml version="1.0" encoding="UTF-8"?>
<svg id="Capa_1" data-name="Capa 1" xmlns="http://www.w3.org/2000/svg" viewBox="0 0 666 675.3">
  <defs>
    <style>
      .cls-1 {
        stroke: #1a5ce0;
        stroke-width: 8px;
      }

      .cls-1, .cls-2, .cls-3 {
        fill: none;
      }

      .cls-2, .cls-4, .cls-5, .cls-6 {
        stroke-width: 0px;
      }

      .cls-7 {
        opacity: .91;
      }

      .cls-4 {
        fill: #332d85;
      }

      .cls-5 {
        fill: #303792;
      }

      .cls-8, .cls-9 {
        font-size: 12px;
      }

      .cls-8, .cls-9, .cls-10 {
        fill: #000;
        font-family: ArialMT, Arial;
      }

      .cls-8, .cls-10 {
        isolation: isolate;
      }

      .cls-6 {
        fill: #fff;
      }

      .cls-10 {
        font-size: 12px;
      }

      .cls-3 {
        stroke: #332d85;
        stroke-width: 20px;
      }
    </style>
  </defs>
  <g id="logo">
    <g id="Elipse_1" data-name="Elipse 1">
      <ellipse class="cls-4" cx="333" cy="342.8" rx="333" ry="332.5"/>
      <ellipse class="cls-1" cx="333" cy="342.8" rx="329" ry="328.5"/>
    </g>
    <circle id="Elipse_2" data-name="Elipse 2" class="cls-6" cx="333" cy="343.3" r="250"/>
    <g id="Elipse_3" data-name="Elipse 3" class="cls-7">
      <path id="SVGID_1_" class="cls-2" d="M250.5,198.9c80.8-46.7,184.1-19,230.8,61.8,46.7,80.8,19,184.1-61.8,230.8s-184.1,19-230.8-61.8-19-184.1,61.8-230.8Z"/>
      <text class="cls-9" transform="translate(180 190.3)"><tspan x="0" y="0"> </tspan></text>
      <text class="cls-8" transform="translate(180 190.3)"><tspan x="0" y="0"> </tspan></text>
      <circle class="cls-3" cx="333" cy="344.7" r="143.5"/>
    </g>
    <g id="Grupo_9" data-name="Grupo 9">
      <g id="Grupo_1" data-name="Grupo 1">
        <circle id="Elipse_4" data-name="Elipse 4" class="cls-5" cx="402.23" cy="395.66" r="16"/>
        <path id="Sustracción_1" data-name="Sustracción 1" class="cls-5" d="M390.55,446.16c-5.52-4.05-10.15-9.06-13.75-14.87-3.45-5.54-5.72-11.76-6.79-18.23-1.14-6.4-.95-12.91.46-19.26,3.01-13.19,11.31-24.59,22.89-31.44,5.54-3.31,11.77-5.43,18.17-6.44,6.48-.93,13.07-.67,19.42.88,6.63,1.54,12.89,4.5,18.34,8.49,1.45,1.08,2.98,2.23,4.3,3.46-23.97-13.74-54.53-5.45-68.27,18.52-11.67,20.43-7.59,46.11,9.8,61.92-1.45-.94-2.97-1.95-4.56-3.02Z"/>
      </g>
      <g id="Grupo_3" data-name="Grupo 3">
        <circle id="Elipse_4-2" data-name="Elipse 4-2" class="cls-5" cx="421.43" cy="331.45" r="16"/>
        <path id="Sustracción_1-2" data-name="Sustracción 1-2" class="cls-5" d="M449.64,374.94c-6.75,1.15-13.57,1.01-20.25-.44-6.38-1.37-12.43-4.06-17.83-7.78-5.4-3.62-9.95-8.29-13.54-13.71-7.4-11.33-9.83-25.22-6.71-38.3,1.47-6.29,4.27-12.24,7.99-17.54,3.83-5.31,8.6-9.86,14.12-13.36,5.71-3.7,12.2-6.15,18.84-7.3,1.79-.29,3.67-.59,5.47-.69-26.53,7.7-41.8,35.44-34.1,61.97,6.59,22.59,27.9,37.49,51.35,35.96-1.68.39-3.46.78-5.35,1.18Z"/>
      </g>
      <g id="Grupo_2" data-name="Grupo 2">
        <circle id="Elipse_4-3" data-name="Elipse 4-3" class="cls-5" cx="388.76" cy="273.05" r="16"/>
        <path id="Sustracción_1-3" data-name="Sustracción 1-3" class="cls-5" d="M439.26,284.73c-4.05,5.52-9.06,10.15-14.87,13.75-5.54,3.45-11.76,5.72-18.23,6.79-6.4,1.14-12.91.95-19.26-.46-13.19-3.01-24.59-11.31-31.44-22.89-3.31-5.54-5.43-11.77-6.44-18.17-.93-6.48-.67-13.07.88-19.42,1.54-6.63,4.5-12.89,8.49-18.34,1.08-1.45,2.23-2.98,3.46-4.3-13.74,23.97-5.45,54.53,18.52,68.27,20.43,11.67,46.11,7.59,61.92-9.8-.94,1.45-1.95,2.97-3.02,4.56Z"/>
      </g>
      <g id="Grupo_4" data-name="Grupo 4">
        <circle id="Elipse_4-4" data-name="Elipse 4-4" class="cls-5" cx="325.55" cy="255.08" r="16.01"/>
        <path id="Sustracción_1-4" data-name="Sustracción 1-4" class="cls-5" d="M369.05,226.87c1.15,6.75,1.01,13.57-.45,20.26-1.37,6.38-4.06,12.43-7.79,17.84-3.63,5.4-8.3,9.95-13.72,13.54-11.33,7.4-25.23,9.83-38.32,6.7-6.29-1.48-12.24-4.27-17.55-8-5.31-3.83-9.86-8.6-13.36-14.13-3.7-5.72-6.14-12.2-7.29-18.85-.29-1.79-.59-3.68-.69-5.47,7.69,26.55,35.43,41.83,61.98,34.14,22.6-6.59,37.51-27.9,35.99-51.36.39,1.68.78,3.47,1.18,5.35Z"/>
      </g>
      <g id="Grupo_5" data-name="Grupo 5">
        <circle id="Elipse_4-5" data-name="Elipse 4-5" class="cls-5" cx="264.82" cy="288.23" r="16"/>
        <path id="Sustracción_1-5" data-name="Sustracción 1-5" class="cls-5" d="M279.97,238.67c5.22,4.43,9.49,9.74,12.68,15.79,3.05,5.76,4.88,12.12,5.51,18.65.7,6.46.05,12.95-1.8,19.18-3.92,12.95-12.99,23.74-25.01,29.76-5.76,2.91-12.11,4.6-18.57,5.16-6.52.48-13.08-.24-19.3-2.23-6.51-1.99-12.55-5.39-17.7-9.74-1.37-1.18-2.82-2.43-4.04-3.75,22.95,15.37,54,9.23,69.37-13.72,13.06-19.57,10.77-45.46-5.47-62.44,1.38,1.04,2.83,2.15,4.34,3.33Z"/>
      </g>
      <g id="Grupo_6" data-name="Grupo 6">
        <circle id="Elipse_4-6" data-name="Elipse 4-6" class="cls-5" cx="248.61" cy="354.12" r="16"/>
        <path id="Sustracción_1-6" data-name="Sustracción 1-6" class="cls-5" d="M222.71,309.22c6.8-.8,13.6-.3,20.2,1.5,6.3,1.7,12.2,4.7,17.4,8.7,5.2,3.9,9.5,8.8,12.8,14.4,6.8,11.7,8.5,25.7,4.7,38.6-1.8,6.2-4.9,12-8.9,17.1-4.1,5.1-9.1,9.4-14.8,12.6-5.9,3.4-12.5,5.5-19.2,6.3-1.8.2-3.7.4-5.5.4,26.9-6.3,43.6-33.2,37.3-60.1-5.4-22.9-25.9-38.9-49.4-38.6,1.7-.3,3.5-.6,5.4-.9Z"/>
      </g>
      <g id="Grupo_7" data-name="Grupo 7">
        <circle id="Elipse_4-7" data-name="Elipse 4-7" class="cls-5" cx="282.14" cy="411.65" r="16"/>
        <path id="Sustracción_1-7" data-name="Sustracción 1-7" class="cls-5" d="M232.32,397.34c4.34-5.3,9.57-9.66,15.57-12.95,5.71-3.15,12.04-5.09,18.56-5.83,6.45-.81,12.95-.27,19.21,1.47,13.02,3.69,23.97,12.58,30.19,24.5,3.01,5.71,4.81,12.04,5.48,18.48.59,6.52-.02,13.08-1.89,19.34-1.88,6.54-5.17,12.64-9.43,17.87-1.16,1.39-2.38,2.86-3.68,4.11,14.97-23.22,8.3-54.17-14.92-69.14-19.79-12.72-45.65-9.99-62.35,6.55,1.01-1.4,2.1-2.86,3.26-4.4Z"/>
      </g>
      <g id="Grupo_8" data-name="Grupo 8">
        <circle id="Elipse_4-8" data-name="Elipse 4-8" class="cls-5" cx="344.47" cy="429.36" r="16"/>
        <path id="Sustracción_1-8" data-name="Sustracción 1-8" class="cls-5" d="M301.49,458.33c-1.27-6.73-1.25-13.55.09-20.26,1.26-6.4,3.84-12.5,7.47-17.96,3.53-5.46,8.12-10.09,13.47-13.77,11.2-7.6,25.04-10.27,38.18-7.38,6.31,1.36,12.31,4.05,17.68,7.69,5.37,3.73,10.01,8.42,13.6,13.89,3.8,5.65,6.36,12.09,7.62,18.71.33,1.78.66,3.66.78,5.46-8.16-26.4-36.16-41.18-62.56-33.02-22.47,6.98-37,28.55-35.06,51.97-.42-1.68-.84-3.45-1.27-5.32Z"/>
      </g>
    </g>
  </g>
  <text class="cls-10" transform="translate(365.1 207.19) rotate(.61)"><tspan x="0" y="0"> </tspan></text>
  <text class="cls-8" transform="translate(0 10.3)"><tspan x="0" y="0"> </tspan></text>
</svg>