<?xml version="1.0" encoding="UTF-8"?>
<svg id="Capa_2" data-name="Capa 2" xmlns="http://www.w3.org/2000/svg" version="1.1" viewBox="0 0 49.2 55.4">
  <defs>
    <style>
      .cls-1 {
        fill: #03258c;
        fill-rule: evenodd;
        stroke-width: 0px;
      }
    </style>
  </defs>
  <g id="Layer_1" data-name="Layer 1">
    <g>
      <path class="cls-1" d="M47.4,48.4c0,3.9-3.2,7.1-7.1,7.1s-7.1-3.2-7.1-7.1,3.2-7,7.1-7,7.1,3.2,7.1,7Z"/>
      <path class="cls-1" d="M28.3,48.4c0,3.9-3.2,7.1-7.1,7.1s-7.1-3.2-7.1-7.1,3.2-7,7.1-7,7.1,3.2,7.1,7Z"/>
      <path class="cls-1" d="M13.1,38.3c0,3.6-2.9,6.5-6.5,6.5s-6.5-2.9-6.5-6.5,2.9-6.5,6.5-6.5,6.5,2.9,6.5,6.5Z"/>
      <path class="cls-1" d="M12.9,22.7c0,3.3-2.6,5.9-5.9,5.9s-5.9-2.6-5.9-5.9,2.6-5.9,5.9-5.9,5.9,2.6,5.9,5.9Z"/>
      <path class="cls-1" d="M19.5,9.3c0,2.8-2.3,5.2-5.1,5.2s-5.1-2.3-5.1-5.1,2.3-5.2,5.1-5.2,5.1,2.3,5.1,5.1Z"/>
      <path class="cls-1" d="M31.2,4.4c0,2.4-2,4.4-4.4,4.4s-4.4-2-4.4-4.4S24.4,0,26.8,0s4.4,2,4.4,4.4Z"/>
      <path class="cls-1" d="M41.8,5.6c0,1.8-1.4,3.2-3.2,3.2s-3.2-1.4-3.2-3.2,1.4-3.2,3.2-3.2,3.2,1.4,3.2,3.2Z"/>
      <path class="cls-1" d="M49.2,11.7c0,1.4-1.1,2.5-2.5,2.5s-2.5-1.1-2.5-2.5,1.1-2.6,2.5-2.6,2.5,1.1,2.5,2.6Z"/>
    </g>
  </g>
</svg>