<?xml version="1.0" encoding="UTF-8"?>
<svg id="Capa_2" data-name="Capa 2" xmlns="http://www.w3.org/2000/svg" viewBox="0 0 49.22 55.43">
  <defs>
    <style>
      .cls-1 {
        fill: #233a7f;
        fill-rule: evenodd;
        stroke-width: 0px;
      }
    </style>
  </defs>
  <g id="Layer_1" data-name="Layer 1">
    <g>
      <path class="cls-1" d="M47.38,48.37c0,3.9-3.16,7.06-7.06,7.06s-7.06-3.16-7.06-7.06,3.16-7.05,7.06-7.05,7.06,3.15,7.06,7.05Z"/>
      <path class="cls-1" d="M28.31,48.37c0,3.9-3.16,7.06-7.06,7.06s-7.05-3.16-7.05-7.06,3.16-7.05,7.05-7.05,7.06,3.15,7.06,7.05Z"/>
      <path class="cls-1" d="M13.06,38.31c0,3.6-2.93,6.53-6.53,6.53s-6.53-2.92-6.53-6.53,2.92-6.53,6.53-6.53,6.53,2.92,6.53,6.53Z"/>
      <path class="cls-1" d="M12.95,22.74c0,3.26-2.63,5.89-5.89,5.89s-5.9-2.63-5.9-5.89,2.64-5.9,5.9-5.9,5.89,2.64,5.89,5.9Z"/>
      <path class="cls-1" d="M19.52,9.28c0,2.85-2.3,5.15-5.15,5.15s-5.15-2.31-5.15-5.15,2.31-5.15,5.15-5.15,5.15,2.3,5.15,5.15Z"/>
      <path class="cls-1" d="M31.23,4.38c0,2.42-1.96,4.39-4.38,4.39s-4.39-1.96-4.39-4.39,1.97-4.38,4.39-4.38,4.38,1.96,4.38,4.38Z"/>
      <path class="cls-1" d="M41.81,5.64c0,1.76-1.43,3.18-3.18,3.18s-3.18-1.42-3.18-3.18,1.43-3.18,3.18-3.18,3.18,1.43,3.18,3.18Z"/>
      <path class="cls-1" d="M49.22,11.72c0,1.4-1.14,2.54-2.55,2.54s-2.54-1.14-2.54-2.54,1.14-2.55,2.54-2.55,2.55,1.14,2.55,2.55Z"/>
    </g>
  </g>
</svg>