<?xml version="1.0" encoding="UTF-8"?>
<svg id="Capa_1" data-name="Capa 1" xmlns="http://www.w3.org/2000/svg" version="1.1" viewBox="0 0 24 24">
  <defs>
    <style>
      .cls-1 {
        fill: none;
      }

      .cls-1, .cls-2 {
        stroke-width: 0px;
      }

      .cls-2 {
        fill: #03258c;
      }
    </style>
  </defs>
  <path class="cls-1" d="M0,0h24v24H0V0Z"/>
  <path class="cls-2" d="M12,2c-4,0-8,.5-8,4v9.5c0,1.9,1.6,3.5,3.5,3.5l-1.5,1.5v.5h2.2l2-2h3.8l2,2h2v-.5l-1.5-1.5c1.9,0,3.5-1.6,3.5-3.5V6c0-3.5-3.6-4-8-4ZM7.5,17c-.8,0-1.5-.7-1.5-1.5s.7-1.5,1.5-1.5,1.5.7,1.5,1.5-.7,1.5-1.5,1.5ZM11,10h-5v-4h5v4ZM13,10v-4h5v4h-5ZM16.5,17c-.8,0-1.5-.7-1.5-1.5s.7-1.5,1.5-1.5,1.5.7,1.5,1.5-.7,1.5-1.5,1.5Z"/>
</svg>