<?xml version="1.0" encoding="UTF-8"?>
<svg id="Capa_2" data-name="Capa 2" xmlns="http://www.w3.org/2000/svg" viewBox="0 0 54.71 82.16">
  <defs>
    <style>
      .cls-1 {
        fill: #303991;
        fill-rule: evenodd;
        stroke-width: 0px;
      }
    </style>
  </defs>
  <g id="Capa_1-2" data-name="Capa 1">
    <path class="cls-1" d="M21.37,31.33l5.61.64,1.69,3.71c-.89,2.01-1.59,2.25-2.8,3.97-2.08,4.07-5.1,7.45-5.16,12.52-.06,4.88.64,3.72-1.7,7.39-1.43,2.25-1.53,3.49-4.2,4.74.72-8.33-.35-8.67-2.69-18.36-.92-3.79,5.29-10.32,2.3-14.95-2.36-3.67-.87,2.76-3.72-1.29-1.89-2.69.07-4.27-.48-7.85-.21-1.34-.18-.94-.47-1.36-1.88,6.12,1.73,5.16-4.29,8.37-1.2.64-.87.45-1.43,1.15l-.88,1.62c-5.03,10.94,4.55,11.77-.74,16.98-2.16,2.13-3.05,2.54-1.9,6.39,1.78,5.97,2.64,24.14,5.26,26.36,2.92,1.25,38.52.7,44.56.46,1.07-14.47,9.86-26.76-.95-41.37-1.82-2.46-8.94-7.9-7.29-12.99.34-1.06.78-2.17,1.15-3.29,4.02-12.26-.82-10.63,3.19-14.7C53.36,2.43,25.25-3.22,16.87,2.1c-.4,5.05,6.48,8.37-.66,11.48l-2.91,1.5c-.07.05-.23.18-.32.28,1.75.8,4.01.44,6.23.56-.1,4.18-.6,3.41-1.79,6.42,2.06,4.24,1.54-.59,3.95,8.98"/>
  </g>
</svg>