<?xml version="1.0" encoding="UTF-8"?>
<svg id="Capa_2" data-name="Capa 2" xmlns="http://www.w3.org/2000/svg" viewBox="0 0 82.96 79.55">
  <defs>
    <style>
      .cls-1 {
        fill: #fefeff;
      }

      .cls-1, .cls-2, .cls-3, .cls-4 {
        fill-rule: evenodd;
        stroke-width: 0px;
      }

      .cls-2 {
        fill: #f7f7f9;
      }

      .cls-3 {
        fill: #303991;
      }

      .cls-4 {
        fill: #f9fbfe;
      }
    </style>
  </defs>
  <g id="Capa_1-2" data-name="Capa 1">
    <path class="cls-3" d="M40.13.09c-3.3.99-6.44,2.12-9.7,3.11-2.91.89-7.14,2.06-9.14,3.64-2.41,1.91-2.81,5.87-3.26,9.5-.9,7.31-.84,16.89-.02,24.24.56,5.05,3.01,6.97,5.57,10.35,1.97,2.6,2.95,2.76,6.73,2.76,1.99,0,23.95.17,25.36-.1,1.76-.33,2.8-1.42,3.7-2.65,3.86-5.26,5.14-4.82,5.81-13.33.62-7.85.6-16.34-.65-24.1-.33-2.02-.49-3.5-1.42-4.94-2.02-3.13-4.55-3.38-8.19-4.56-3.48-1.13-12.47-4.62-14.8-3.92"/>
    <path class="cls-1" d="M25.86,16.31c-1.79.4-2.64,1.69-2.68,3.62-.22,10.54-.21,9.75,9.09,9.76,4.13,0,8.27,0,12.4,0,2.53,0,10.63.33,12.5-.09,1.64-.37,2.58-1.7,2.62-3.63.04-1.98.06-4.24,0-6.22-.16-4.57-5.08-3.56-9.08-3.56-3.44,0-23.21-.24-24.83.12"/>
    <path class="cls-3" d="M18.54,77.23l45.88.03c.18-.68-.44-1.29-1.09-2.47-.52-.94-.85-1.69-1.38-2.49l-40.93-.03-2.03,3.64c-.3.52-.6.72-.44,1.31"/>
    <path class="cls-3" d="M7.21,79.55l8.75-.02c1.16-2.71,5.23-9.36,6.85-12.54,1-1.97,2.23-4.16,3.4-6.17.46-.79,3.27-5.77,3.33-6.26-.88-.19-1.86-.07-2.76-.08-1.37-.02-1.49-.14-2.17.84l-14.91,20.52c-.57.79-2.28,2.8-2.48,3.71"/>
    <path class="cls-3" d="M67,79.46l8.75.07c-.2-.91-1.65-2.57-2.18-3.28l-15.8-21.68-4.36-.08c.07.61,1.2,2.47,1.57,3.14l5.16,9.36c.98,1.94,2.43,4.28,3.43,6.16,1.14,2.15,2.53,4.28,3.42,6.31"/>
    <path class="cls-3" d="M24.19,67h34.59c.07-.55-1.32-3.09-1.64-3.53-.68-.94-3.57-.48-4.84-.48h-21.44c-1.21,0-4.26-.47-4.94.38-.39.48-1.79,3.08-1.72,3.62"/>
    <path class="cls-3" d="M28.62,58.69c8.45.14,17.39-.09,25.7.11-.12-.73-.45-1.17-.74-1.73-.71-1.39-.42-1.36-1.83-1.36h-21.26c-.64,0-.8.73-1.12,1.36-.22.44-.68,1.14-.75,1.61"/>
    <path class="cls-2" d="M33.68,10.38c.59.32,15.15.43,15.59-.02.32-.54.37-1.94.07-2.36-.39-.54-7.03-.27-7.86-.27-.76,0-7.4-.16-7.78.18-.41.38-.34,1.91-.02,2.47"/>
    <path class="cls-3" d="M82.96,77.17c-.06-.54-1.2-1.77-1.71-2.22-2.98-2.66-.73-2.69-5.23-2.68-1.33,0-2.69-.06-4.01.01.07.49,3.07,4.55,3.27,4.73.5.44,6.74.44,7.67.15"/>
    <path class="cls-3" d="M0,77.17l5.69.1c.9,0,1.59.17,2.06-.34l1.14-1.52c.39-.5,1.98-2.69,2.05-3.13l-6.15-.03c-1.21.06-1.69,1.23-2.54,2.19-.31.34-.52.44-.82.77-.28.31-.4.58-.69.9-.59.64-.64.24-.74,1.06"/>
    <path class="cls-3" d="M73.66,66.98c.04-.59-.35-.82-1.18-1.69-.55-.58-1-1.21-1.47-1.72-.76-.83-1.31-.59-2.6-.59-1.04,0-2.11-.07-3.14.05.07.31,2.22,3.41,2.45,3.65.63.63,4.83.3,5.94.29"/>
    <path class="cls-3" d="M9.26,66.89l3.16.1c2.3,0,2.32.46,3.39-1.14.49-.73,1.78-2.1,1.88-2.8-.98-.11-1.98-.05-2.97-.05-2.76,0-1.96-.25-4.08,2.13-.58.65-1.25,1.17-1.39,1.77"/>
    <path class="cls-2" d="M28.44,37.66c-2.83,1.29-.76,5.03,1.74,3.92,2.38-1.06,1.02-5.18-1.74-3.92"/>
    <path class="cls-4" d="M53.12,37.56c-2.67.69-1.65,4.88,1.21,4.08,2.5-.69,1.64-4.82-1.21-4.08"/>
    <path class="cls-3" d="M16.46,58.77h4.47c.48-.47,1.99-2.61,2.13-3.05-1.18,0-3.64-.44-4.44.36-.37.37-1.98,2.25-2.16,2.68"/>
    <path class="cls-3" d="M66.49,58.77c-.2-.49-2.09-2.65-2.5-3.01l-4.08-.05c.12.39,1.71,2.69,1.95,2.86.51.35,3.78.22,4.63.2"/>
  </g>
</svg>